<svg width="20.000000" height="13.000000" viewBox="0 0 20 13" fill="none" xmlns="http://www.w3.org/2000/svg" xmlns:xlink="http://www.w3.org/1999/xlink">
	<desc>
			Created with Pixso.
	</desc>
	<defs/>
	<path id="Vector" d="M19.12 2.81L10.84 0.13C10.29 -0.05 9.7 -0.05 9.15 0.13L0.87 2.81C0.34 2.98 0 3.44 0 4C0 4.55 0.34 5.01 0.86 5.18L1.79 5.48C1.69 5.68 1.61 5.88 1.56 6.1C1.23 6.26 1 6.6 1 7C1 7.39 1.23 7.73 1.57 7.89L1 11.39C0.95 11.7 1.13 12 1.36 12L2.63 12C2.86 12 3.04 11.7 2.99 11.39L2.42 7.89C2.76 7.73 3 7.39 3 7C3 6.66 2.82 6.38 2.58 6.2C2.62 6.06 2.69 5.93 2.78 5.8L4.45 6.34L4 10C4 11.1 6.68 12 10 12C13.31 12 16 11.1 16 10L15.54 6.34L19.12 5.18C19.65 5.01 20 4.55 20 4C20 3.44 19.65 2.98 19.12 2.81ZM14.98 9.93C14.64 10.28 12.93 11 10 11C7.06 11 5.35 10.28 5.01 9.93L5.42 6.66L9.15 7.86C9.23 7.89 9.95 8.15 10.84 7.86L14.57 6.66L14.98 9.93ZM18.82 4.23L10.54 6.91C10.18 7.02 9.81 7.02 9.45 6.91L3.97 5.13L10.09 3.99C10.36 3.94 10.54 3.67 10.49 3.4C10.44 3.13 10.17 2.95 9.9 3L3.54 4.2C3.15 4.27 2.8 4.44 2.5 4.66L1.17 4.23C0.93 4.15 0.94 3.83 1.17 3.76L9.45 1.08C9.93 0.93 10.32 1.01 10.53 1.08L18.82 3.76C19.05 3.83 19.06 4.15 18.82 4.23Z" fill="#000000" fill-opacity="1.000000" fill-rule="nonzero"/>
</svg>
