<svg width="16.000000" height="18.000000" viewBox="0 0 16 18" fill="none" xmlns="http://www.w3.org/2000/svg" xmlns:xlink="http://www.w3.org/1999/xlink">
	<desc>
			Created with Pixso.
	</desc>
	<defs/>
	<path id="Vector" d="M0.28 2.25L4 2.25L5.19 0.67C5.35 0.46 5.56 0.29 5.8 0.17C6.04 0.06 6.3 0 6.57 0L9.42 0C9.69 0 9.95 0.06 10.19 0.17C10.43 0.29 10.64 0.46 10.8 0.67L12 2.25L15.71 2.25C15.79 2.25 15.86 2.27 15.91 2.33C15.97 2.38 16 2.45 16 2.53L16 3.09C16 3.16 15.97 3.23 15.91 3.29C15.86 3.34 15.79 3.37 15.71 3.37L15.03 3.37L13.85 16.46C13.81 16.88 13.61 17.27 13.3 17.55C12.98 17.84 12.57 17.99 12.14 18L3.85 18C3.42 17.99 3.01 17.84 2.69 17.55C2.38 17.27 2.18 16.88 2.14 16.46L0.96 3.37L0.28 3.37C0.2 3.37 0.13 3.34 0.08 3.29C0.03 3.23 0 3.16 0 3.09L0 2.53C0 2.45 0.03 2.38 0.08 2.33C0.13 2.27 0.2 2.25 0.28 2.25ZM9.88 1.35C9.83 1.28 9.76 1.22 9.68 1.18C9.6 1.14 9.51 1.12 9.42 1.12L6.57 1.12C6.48 1.12 6.39 1.14 6.31 1.18C6.23 1.22 6.16 1.28 6.11 1.35L5.42 2.25L10.57 2.25L9.88 1.35ZM3.28 16.36C3.29 16.5 3.36 16.63 3.46 16.72C3.57 16.82 3.71 16.87 3.85 16.87L12.14 16.87C12.28 16.87 12.42 16.82 12.53 16.72C12.63 16.63 12.7 16.5 12.71 16.36L13.89 3.37L2.1 3.37L3.28 16.36Z" fill="#FEAF00" fill-opacity="1.000000" fill-rule="nonzero"/>
</svg>
