<svg width="19.000000" height="19.000000" viewBox="0 0 19 19" fill="none" xmlns="http://www.w3.org/2000/svg" xmlns:xlink="http://www.w3.org/1999/xlink">
	<desc>
			Created with Pixso.
	</desc>
	<defs/>
	<path id="Vector" d="M18.3 2.08L16.91 0.69C16.44 0.23 15.83 0 15.23 0C14.62 0 14.01 0.23 13.55 0.69L0.47 13.77L0 18.01C-0.06 18.54 0.36 19 0.88 19C0.92 19 0.95 18.99 0.98 18.99L5.22 18.52L18.3 5.44C19.23 4.51 19.23 3.01 18.3 2.08ZM4.67 17.39L1.22 17.77L1.61 14.31L11.4 4.52L14.47 7.59L4.67 17.39ZM17.46 4.6L15.31 6.75L12.24 3.68L14.39 1.53C14.61 1.31 14.91 1.18 15.23 1.18C15.54 1.18 15.84 1.31 16.07 1.53L17.46 2.92C17.92 3.39 17.92 4.14 17.46 4.6Z" fill="#FEAF00" fill-opacity="1.000000" fill-rule="nonzero"/>
</svg>
