<svg width="15.000000" height="15.000000" viewBox="0 0 15 15" fill="none" xmlns="http://www.w3.org/2000/svg" xmlns:xlink="http://www.w3.org/1999/xlink">
	<desc>
			Created with Pixso.
	</desc>
	<defs/>
	<path id="Vector" d="M13.9 13.16L10.37 9.64C10.31 9.57 10.23 9.54 10.14 9.54L9.86 9.54C10.8 8.53 11.37 7.17 11.37 5.68C11.37 2.54 8.82 0 5.68 0C2.54 0 0 2.54 0 5.68C0 8.82 2.54 11.37 5.68 11.37C7.17 11.37 8.53 10.8 9.54 9.86L9.54 10.14C9.54 10.23 9.58 10.31 9.64 10.37L13.16 13.9C13.29 14.03 13.5 14.03 13.63 13.9L13.9 13.63C14.03 13.5 14.03 13.29 13.9 13.16ZM5.68 10.5C3.02 10.5 0.87 8.34 0.87 5.68C0.87 3.02 3.02 0.87 5.68 0.87C8.34 0.87 10.5 3.02 10.5 5.68C10.5 8.34 8.34 10.5 5.68 10.5Z" fill="#C4C4C4" fill-opacity="1.000000" fill-rule="nonzero"/>
</svg>
